HIERARCHY
ROOT Root
{
  OFFSET 0.0 0.0 0.0
  CHANNELS 6 Xposition Yposition Zposition Zrotation Yrotation Xrotation
  JOINT Hips
  {
    OFFSET 0.0 100.0 0.0
    CHANNELS 6 Xposition Yposition Zposition Zrotation Yrotation Xrotation
    JOINT Spine1
    {
      OFFSET -0.013727 5.003763 -0.053727
      CHANNELS 3 Zrotation Yrotation Xrotation
      JOINT Spine2
      {
        OFFSET -0.0 7.125301 -0.029825
        CHANNELS 3 Zrotation Yrotation Xrotation
        JOINT Chest
        {
          OFFSET -1e-06 7.550063 -0.815971
          CHANNELS 3 Zrotation Yrotation Xrotation
          JOINT Neck1
          {
            OFFSET -0.181677 26.311295 -0.553348
            CHANNELS 3 Zrotation Yrotation Xrotation
            JOINT Neck2
            {
              OFFSET -3e-06 7.709397 2.302585
              CHANNELS 3 Zrotation Yrotation Xrotation
              JOINT Head
              {
                OFFSET -5e-06 6.128916 1.953709
                CHANNELS 3 Zrotation Yrotation Xrotation
                JOINT HeadEnd
                {
                  OFFSET 0.003598 16.065403 -1.835379
                  CHANNELS 3 Zrotation Yrotation Xrotation
                }
                JOINT Jaw
                {
                  OFFSET 0.002637 0.475592 3.094941
                  CHANNELS 3 Zrotation Yrotation Xrotation
                }
                JOINT LeftEye
                {
                  OFFSET 3.206381 5.380205 7.586883
                  CHANNELS 3 Zrotation Yrotation Xrotation
                }
                JOINT RightEye
                {
                  OFFSET -3.22244 5.361869 7.558234
                  CHANNELS 3 Zrotation Yrotation Xrotation
                }
              }
            }
          }
          JOINT LeftShoulder
          {
            OFFSET 1.621652 23.237164 5.113413
            CHANNELS 3 Zrotation Yrotation Xrotation
            JOINT LeftArm
            {
              OFFSET 14.919846 2e-06 -5.502326
              CHANNELS 3 Zrotation Yrotation Xrotation
              JOINT LeftForeArm
              {
                OFFSET 28.739307 0.0 -0.002588
                CHANNELS 3 Zrotation Yrotation Xrotation
                JOINT LeftHand
                {
                  OFFSET 27.093981 -1e-06 0.002609
                  CHANNELS 3 Zrotation Yrotation Xrotation
                  JOINT LeftHandThumb1
                  {
                    OFFSET 2.276482 -1.392045 3.191413
                    CHANNELS 3 Zrotation Yrotation Xrotation
                    JOINT LeftHandThumb2
                    {
                      OFFSET 4.012836 -1.828127 1.641654
                      CHANNELS 3 Zrotation Yrotation Xrotation
                      JOINT LeftHandThumb3
                      {
                        OFFSET 2.798515 0.0 -3e-06
                        CHANNELS 3 Zrotation Yrotation Xrotation
                        JOINT LeftHandThumbEnd
                        {
                          OFFSET 3.180793 -4e-06 4e-06
                          CHANNELS 3 Zrotation Yrotation Xrotation
                        }
                      }
                    }
                  }
                  JOINT LeftHandIndex1
                  {
                    OFFSET 3.247555 -0.531998 2.296169
                    CHANNELS 3 Zrotation Yrotation Xrotation
                    JOINT LeftHandIndex2
                    {
                      OFFSET 6.364578 0.01206 0.1786
                      CHANNELS 3 Zrotation Yrotation Xrotation
                      JOINT LeftHandIndex3
                      {
                        OFFSET 3.662364 0.0 0.0
                        CHANNELS 3 Zrotation Yrotation Xrotation
                        JOINT LeftHandIndex4
                        {
                          OFFSET 2.329242 4e-06 4e-06
                          CHANNELS 3 Zrotation Yrotation Xrotation
                          JOINT LeftHandIndexEnd
                          {
                            OFFSET 2.759615 -0.180537 -0.113024
                            CHANNELS 3 Zrotation Yrotation Xrotation
                          }
                        }
                      }
                    }
                  }
                  JOINT LeftHandMiddle1
                  {
                    OFFSET 3.163495 0.240981 1.000332
                    CHANNELS 3 Zrotation Yrotation Xrotation
                    JOINT LeftHandMiddle2
                    {
                      OFFSET 6.19078 -0.259278 -1.002548
                      CHANNELS 3 Zrotation Yrotation Xrotation
                      JOINT LeftHandMiddle3
                      {
                        OFFSET 4.35652 -4e-06 -1e-06
                        CHANNELS 3 Zrotation Yrotation Xrotation
                        JOINT LeftHandMiddle4
                        {
                          OFFSET 2.996877 -8e-06 0.0
                          CHANNELS 3 Zrotation Yrotation Xrotation
                          JOINT LeftHandMiddleEnd
                          {
                            OFFSET 2.304287 -0.294569 -0.031741
                            CHANNELS 3 Zrotation Yrotation Xrotation
                          }
                        }
                      }
                    }
                  }
                  JOINT LeftHandRing1
                  {
                    OFFSET 2.882643 -0.053652 -0.322543
                    CHANNELS 3 Zrotation Yrotation Xrotation
                    JOINT LeftHandRing2
                    {
                      OFFSET 5.854541 -0.486202 -1.373841
                      CHANNELS 3 Zrotation Yrotation Xrotation
                      JOINT LeftHandRing3
                      {
                        OFFSET 4.350578 0.0 3e-06
                        CHANNELS 3 Zrotation Yrotation Xrotation
                        JOINT LeftHandRing4
                        {
                          OFFSET 2.651321 7e-06 2e-06
                          CHANNELS 3 Zrotation Yrotation Xrotation
                          JOINT LeftHandRingEnd
                          {
                            OFFSET 1.936105 0.077687 -7.1e-05
                            CHANNELS 3 Zrotation Yrotation Xrotation
                          }
                        }
                      }
                    }
                  }
                  JOINT LeftHandPinky1
                  {
                    OFFSET 2.8655 -0.310005 -1.600378
                    CHANNELS 3 Zrotation Yrotation Xrotation
                    JOINT LeftHandPinky2
                    {
                      OFFSET 5.087849 -1.331141 -1.77123
                      CHANNELS 3 Zrotation Yrotation Xrotation
                      JOINT LeftHandPinky3
                      {
                        OFFSET 3.070974 4e-06 0.0
                        CHANNELS 3 Zrotation Yrotation Xrotation
                        JOINT LeftHandPinky4
                        {
                          OFFSET 1.549672 0.0 1e-06
                          CHANNELS 3 Zrotation Yrotation Xrotation
                          JOINT LeftHandPinkyEnd
                          {
                            OFFSET 1.944893 -0.157802 0.057219
                            CHANNELS 3 Zrotation Yrotation Xrotation
                          }
                        }
                      }
                    }
                  }
                }
              }
            }
          }
          JOINT RightShoulder
          {
            OFFSET -1.380118 23.180309 5.214158
            CHANNELS 3 Zrotation Yrotation Xrotation
            JOINT RightArm
            {
              OFFSET -15.037196 1.2e-05 -5.545604
              CHANNELS 3 Zrotation Yrotation Xrotation
              JOINT RightForeArm
              {
                OFFSET -28.736639 2e-06 -0.002597
                CHANNELS 3 Zrotation Yrotation Xrotation
                JOINT RightHand
                {
                  OFFSET -27.133619 -0.0 0.002613
                  CHANNELS 3 Zrotation Yrotation Xrotation
                  JOINT RightHandThumb1
                  {
                    OFFSET -2.274032 -1.383988 3.163127
                    CHANNELS 3 Zrotation Yrotation Xrotation
                    JOINT RightHandThumb2
                    {
                      OFFSET -4.011429 -1.827466 1.640914
                      CHANNELS 3 Zrotation Yrotation Xrotation
                      JOINT RightHandThumb3
                      {
                        OFFSET -2.794935 -4e-06 -3e-06
                        CHANNELS 3 Zrotation Yrotation Xrotation
                        JOINT RightHandThumbEnd
                        {
                          OFFSET -3.183852 4e-06 1e-06
                          CHANNELS 3 Zrotation Yrotation Xrotation
                        }
                      }
                    }
                  }
                  JOINT RightHandIndex1
                  {
                    OFFSET -3.253266 -0.520057 2.282866
                    CHANNELS 3 Zrotation Yrotation Xrotation
                    JOINT RightHandIndex2
                    {
                      OFFSET -6.341917 0.012471 0.178266
                      CHANNELS 3 Zrotation Yrotation Xrotation
                      JOINT RightHandIndex3
                      {
                        OFFSET -3.654871 -8e-06 -0.0
                        CHANNELS 3 Zrotation Yrotation Xrotation
                        JOINT RightHandIndex4
                        {
                          OFFSET -2.327586 0.0 1e-06
                          CHANNELS 3 Zrotation Yrotation Xrotation
                          JOINT RightHandIndexEnd
                          {
                            OFFSET -2.76179 -0.180656 -0.113078
                            CHANNELS 3 Zrotation Yrotation Xrotation
                          }
                        }
                      }
                    }
                  }
                  JOINT RightHandMiddle1
                  {
                    OFFSET -3.168106 0.246593 1.00103
                    CHANNELS 3 Zrotation Yrotation Xrotation
                    JOINT RightHandMiddle2
                    {
                      OFFSET -6.180828 -0.258836 -1.000895
                      CHANNELS 3 Zrotation Yrotation Xrotation
                      JOINT RightHandMiddle3
                      {
                        OFFSET -4.348901 0.0 -0.0
                        CHANNELS 3 Zrotation Yrotation Xrotation
                        JOINT RightHandMiddle4
                        {
                          OFFSET -3.00024 -4e-06 -2e-06
                          CHANNELS 3 Zrotation Yrotation Xrotation
                          JOINT RightHandMiddleEnd
                          {
                            OFFSET -2.30252 -0.29437 -0.031706
                            CHANNELS 3 Zrotation Yrotation Xrotation
                          }
                        }
                      }
                    }
                  }
                  JOINT RightHandRing1
                  {
                    OFFSET -2.88569 -0.067952 -0.308858
                    CHANNELS 3 Zrotation Yrotation Xrotation
                    JOINT RightHandRing2
                    {
                      OFFSET -5.854198 -0.48613 -1.373731
                      CHANNELS 3 Zrotation Yrotation Xrotation
                      JOINT RightHandRing3
                      {
                        OFFSET -4.33881 -4e-06 -0.0
                        CHANNELS 3 Zrotation Yrotation Xrotation
                        JOINT RightHandRing4
                        {
                          OFFSET -2.654903 -4e-06 4e-06
                          CHANNELS 3 Zrotation Yrotation Xrotation
                          JOINT RightHandRingEnd
                          {
                            OFFSET -1.933568 0.077527 -5.2e-05
                            CHANNELS 3 Zrotation Yrotation Xrotation
                          }
                        }
                      }
                    }
                  }
                  JOINT RightHandPinky1
                  {
                    OFFSET -2.866425 -0.342796 -1.584145
                    CHANNELS 3 Zrotation Yrotation Xrotation
                    JOINT RightHandPinky2
                    {
                      OFFSET -5.091371 -1.332055 -1.772385
                      CHANNELS 3 Zrotation Yrotation Xrotation
                      JOINT RightHandPinky3
                      {
                        OFFSET -3.062664 -4e-06 1e-06
                        CHANNELS 3 Zrotation Yrotation Xrotation
                        JOINT RightHandPinky4
                        {
                          OFFSET -1.546529 4e-06 -2e-06
                          CHANNELS 3 Zrotation Yrotation Xrotation
                          JOINT RightHandPinkyEnd
                          {
                            OFFSET -1.945119 -0.157718 0.057211
                            CHANNELS 3 Zrotation Yrotation Xrotation
                          }
                        }
                      }
                    }
                  }
                }
              }
            }
          }
        }
      }
    }
    JOINT LeftLeg
    {
      OFFSET 10.043214 -8.434526 2.595655
      CHANNELS 3 Zrotation Yrotation Xrotation
      JOINT LeftShin
      {
        OFFSET -1e-06 -43.221752 -0.802913
        CHANNELS 3 Zrotation Yrotation Xrotation
        JOINT LeftFoot
        {
          OFFSET 1e-06 -42.155094 -3.481523
          CHANNELS 3 Zrotation Yrotation Xrotation
          JOINT LeftToeBase
          {
            OFFSET 0.0 -5.059472 13.231529
            CHANNELS 3 Zrotation Yrotation Xrotation
            JOINT LeftToeEnd
            {
              OFFSET -0.009607 -1.647619 6.513017
              CHANNELS 3 Zrotation Yrotation Xrotation
            }
          }
        }
      }
    }
    JOINT RightLeg
    {
      OFFSET -10.047278 -8.29526 2.620317
      CHANNELS 3 Zrotation Yrotation Xrotation
      JOINT RightShin
      {
        OFFSET 1e-06 -43.362206 -0.805556
        CHANNELS 3 Zrotation Yrotation Xrotation
        JOINT RightFoot
        {
          OFFSET 2e-06 -42.117393 -3.478398
          CHANNELS 3 Zrotation Yrotation Xrotation
          JOINT RightToeBase
          {
            OFFSET -0.0 -5.079609 13.284196
            CHANNELS 3 Zrotation Yrotation Xrotation
            JOINT RightToeEnd
            {
              OFFSET 0.009532 -1.634378 6.460591
              CHANNELS 3 Zrotation Yrotation Xrotation
            }
          }
        }
      }
    }
  }
}
MOTION
Frames: 4
Frame Time: 0.03333333333333333
0.0 0.0 0.0 0.0 -0.0 0.0 0.79987 99.922302 -1.706412 0.480698 -0.019839 -2.984661 -0.74516 0.053628 -2.934655 -0.601199 -0.259974 -6.268827 -0.477353 -2.180887 11.424734 0.753295 2.539542 7.478419 -0.440173 -0.132906 -3.683265 -1.447984 -0.646651 -11.086705 7.7e-05 -2.2e-05 6e-06 0.011274 0.06844 0.038767 0.695543 -3.66169 -10.479664 -0.676246 3.809447 -10.50762 -11.5863 -3.672204 16.773941 -67.447945 -11.105055 17.713699 0.013966 -22.126352 -0.170556 8.150231 1.791146 -4.237621 -5.882108 9.861288 0.702589 -10.936875 -0.360575 7.156207 0.0 8.774829 -2e-06 -15.946572 18.317835 6.274268 -1.844034 2.498507 -2.507281 -10.163604 4.678947 4.621108 -20.97603 -4e-06 2e-06 -21.226295 2.451697 -3.594003 1e-06 -7e-06 1e-06 -1.362683 2.240799 -0.746326 -21.334919 0.584909 3.008323 -13.821216 -3e-06 3e-06 -23.887175 -0.249079 -0.839485 -60.464687 2.659779 -1.004623 -0.294026 1.679689 0.833256 -14.218214 0.093214 1.300582 -34.212063 -0.287565 0.967168 -20.033216 0.964536 1.212843 -1e-06 -0.0 -1e-06 -3.440389 0.788233 0.501654 -15.928189 -3.167311 2.999707 -6.338828 -1e-06 1e-06 -18.123453 3.648184 -4.905672 -5e-06 0.0 -2e-06 11.872573 7.933076 15.409503 67.430267 6.478292 18.432417 0.167479 24.630516 0.014024 -1.684069 0.791417 0.703611 2.243541 -5.255038 -3.180159 14.282892 -0.826595 6.952504 -1e-06 -12.690608 -2e-06 15.972625 -17.681669 2.785546 1.665667 -1.955923 -2.878299 4.7278 -4.170588 4.993925 11.020527 3e-06 -1e-06 12.109053 -3.735718 -2.866783 -0.0 -0.0 0.0 1.291986 -1.92855 -1.498089 14.800129 0.567467 3.865608 14.242573 -1.341739 -6.660657 19.631973 0.143925 -0.648244 49.912857 -0.571012 -6.40483 0.353029 -1.511152 -0.031939 20.222794 3.684309 2.316631 18.787271 4e-06 1e-06 10.751626 -0.47987 1.397907 2e-06 1e-06 2e-06 3.273806 0.305947 -0.580111 21.486813 11.830377 2.266136 8.162929 1e-06 0.0 18.399086 -3.798986 -4.940577 4e-06 0.0 -3e-06 0.053051 3.658876 6.373015 -0.002483 -0.123008 2.792289 -2.165102 5.234499 -7.496511 1.650948 -1.96813 -1.985016 0.0 -0.0 2e-06 -3.109796 -7.354125 6.406311 0.014588 0.06409 4.714133 1.026978 2.427732 -6.509271 -1.427095 0.845411 -1.373076 0.0 0.0 -1e-06 
0.0 0.0 0.0 0.0 -0.0 0.0 0.751404 99.954758 -1.430736 0.448116 -0.071532 -2.862631 -0.746404 0.030808 -2.945602 -0.586297 -0.184344 -6.273421 -0.499642 -2.182636 11.382665 0.796878 2.509958 7.575862 -0.44672 -0.131066 -3.663433 -1.407376 -0.644863 -11.031052 7.7e-05 -2.3e-05 6e-06 0.016398 0.076751 0.039688 0.700802 -3.653761 -10.478488 -0.671736 3.817046 -10.510859 -11.645641 -3.600613 16.785324 -67.370178 -11.038947 17.564096 -0.061657 -22.202301 -0.158055 8.209091 1.730918 -4.101601 -5.882103 9.861282 0.702591 -10.936868 -0.360575 7.156204 0.0 8.774821 -3e-06 -15.908399 18.306635 6.307067 -1.844032 2.498503 -2.507276 -10.163597 4.678943 4.621107 -20.976021 -3e-06 6e-06 -21.226282 2.451696 -3.593998 1e-06 -6e-06 -1e-06 -1.362681 2.240798 -0.746323 -21.334906 0.58491 3.008322 -13.82121 -3e-06 2e-06 -23.887165 -0.249077 -0.839484 -60.51025 2.650783 -0.928447 -0.294024 1.679687 0.833256 -14.218205 0.093214 1.300582 -34.212044 -0.287563 0.96717 -20.033211 0.964537 1.212843 -2e-06 -0.0 -2e-06 -3.440388 0.788233 0.501655 -15.928185 -3.167308 2.999707 -6.338825 -2e-06 1e-06 -18.123444 3.648182 -4.905669 -5e-06 -0.0 -2e-06 11.779157 7.926439 15.442181 67.591515 6.332948 18.42308 0.066734 24.839073 -0.019488 -1.588122 0.774958 0.424948 2.243542 -5.255039 -3.180159 14.282896 -0.826595 6.952506 -3e-06 -12.690607 0.0 16.010881 -17.720844 2.754459 1.665667 -1.955921 -2.878299 4.7278 -4.170588 4.993925 11.020531 3e-06 -1e-06 12.109056 -3.735717 -2.866784 0.0 -0.0 -0.0 1.291986 -1.928551 -1.498091 14.800134 0.567468 3.865609 14.242577 -1.341736 -6.66066 19.631973 0.143926 -0.648244 49.909821 -0.532662 -6.416045 0.353029 -1.511151 -0.031939 20.222801 3.684311 2.316629 18.787283 5e-06 -1e-06 10.751631 -0.47987 1.397909 1e-06 0.0 1e-06 3.273808 0.305947 -0.580111 21.486824 11.830377 2.266134 8.16293 2e-06 -2e-06 18.399088 -3.798986 -4.940577 4e-06 -1e-06 -3e-06 0.078819 3.646204 6.312911 -0.007695 -0.135868 2.777305 -2.060926 5.33215 -7.512413 1.64442 -1.949484 -1.960523 -0.0 0.0 2e-06 -3.066644 -7.384552 6.411681 0.007308 0.035233 4.593204 0.99145 2.529792 -6.444757 -1.42256 0.839765 -1.505406 0.0 0.0 -1e-06 
0.0 0.0 0.0 0.0 -0.0 0.0 0.702133 99.989281 -1.206387 0.389887 -0.092031 -2.708282 -0.733719 0.021118 -2.97308 -0.580839 -0.148141 -6.303391 -0.507414 -2.183467 11.382125 0.865212 2.509899 7.752588 -0.460913 -0.111971 -3.646823 -1.346995 -0.646707 -11.028946 7.7e-05 -2.2e-05 6e-06 0.017689 0.068895 0.046795 0.697437 -3.662372 -10.482368 -0.666315 3.809846 -10.51614 -11.748376 -3.492841 16.838972 -67.24678 -11.002408 17.501709 -0.08614 -22.345661 -0.156782 8.244219 1.749013 -4.093512 -5.8821 9.861276 0.702589 -10.936861 -0.360576 7.1562 2e-06 8.774816 -1e-06 -15.888059 18.321346 6.327852 -1.84403 2.498502 -2.507275 -10.16359 4.678939 4.621104 -20.976006 -5e-06 3e-06 -21.226269 2.451691 -3.593996 -1e-06 -6e-06 0.0 -1.362679 2.240795 -0.746322 -21.334892 0.584907 3.008322 -13.821201 -4e-06 3e-06 -23.887146 -0.249081 -0.839479 -60.529293 2.639116 -0.861607 -0.294024 1.679685 0.833256 -14.218196 0.093214 1.30058 -34.212013 -0.287567 0.96717 -20.033194 0.964535 1.212844 -2e-06 -0.0 -2e-06 -3.440386 0.788233 0.501657 -15.928172 -3.167308 2.999705 -6.338821 -2e-06 1e-06 -18.12343 3.648176 -4.905663 -5e-06 0.0 -3e-06 11.757442 7.914391 15.463359 67.692665 6.175565 18.513475 -0.030851 25.067692 -0.05288 -1.492615 0.804227 0.01386 2.243538 -5.255033 -3.180153 14.282875 -0.826593 6.952499 -3e-06 -12.690593 -1e-06 16.034327 -17.763855 2.753138 1.665664 -1.955919 -2.878298 4.727794 -4.170584 4.993919 11.020514 4e-06 0.0 12.109038 -3.735711 -2.866781 -1e-06 0.0 -0.0 1.291983 -1.928548 -1.498088 14.800112 0.567468 3.865607 14.242556 -1.341735 -6.660653 19.631945 0.143925 -0.648244 49.906647 -0.522978 -6.429576 0.353029 -1.51115 -0.03194 20.222769 3.684306 2.31663 18.787251 4e-06 1e-06 10.751616 -0.479868 1.397906 1e-06 2e-06 2e-06 3.273803 0.305947 -0.58011 21.48679 11.830365 2.266135 8.16292 0.0 1e-06 18.399063 -3.798982 -4.940569 3e-06 -0.0 -3e-06 0.147096 3.698878 6.254228 -0.009999 -0.151149 2.734388 -2.0387 5.351211 -7.555203 1.638114 -1.943349 -1.914578 -0.0 0.0 2e-06 -2.985399 -7.416339 6.425497 0.003878 0.003494 4.388488 0.937244 2.659087 -6.29159 -1.413679 0.827869 -1.597857 0.0 0.0 -1e-06 
0.0 0.0 0.0 0.0 -0.0 0.0 0.644664 99.990829 -1.020941 0.322719 -0.128677 -2.523435 -0.70569 0.022428 -3.015915 -0.573215 -0.12237 -6.32776 -0.512057 -2.206225 11.389525 0.937832 2.52453 7.937871 -0.483349 -0.108854 -3.638835 -1.290196 -0.652877 -10.994547 7.7e-05 -2.2e-05 6e-06 0.01711 0.058246 0.05316 0.690848 -3.673449 -10.487134 -0.66129 3.799726 -10.52166 -11.859848 -3.369427 16.873295 -67.135231 -10.951271 17.53311 -0.079938 -22.529587 -0.160426 8.313849 1.765765 -4.141779 -5.882101 9.86128 0.702589 -10.936866 -0.360576 7.156203 2e-06 8.774822 -2e-06 -15.866258 18.340714 6.331741 -1.844031 2.498503 -2.507278 -10.163594 4.678941 4.621107 -20.976013 -6e-06 5e-06 -21.226274 2.451692 -3.593995 0.0 -6e-06 -1e-06 -1.36268 2.240796 -0.746323 -21.334904 0.584906 3.008322 -13.821207 -5e-06 3e-06 -23.887161 -0.249081 -0.839479 -60.518959 2.615142 -0.832805 -0.294024 1.679687 0.833256 -14.218201 0.093214 1.300581 -34.212029 -0.287567 0.967175 -20.033205 0.964535 1.212846 -2e-06 -0.0 -1e-06 -3.440387 0.788232 0.501656 -15.928179 -3.167311 2.999706 -6.338824 -2e-06 3e-06 -18.12344 3.64818 -4.905666 -5e-06 -0.0 -3e-06 11.73392 7.882988 15.463253 67.752853 6.07364 18.694838 -0.066906 25.219292 -0.061234 -1.418958 0.898285 -0.328957 2.243541 -5.255036 -3.180159 14.282894 -0.826595 6.952504 -3e-06 -12.690606 1e-06 16.047052 -17.79525 2.743476 1.665666 -1.95592 -2.878298 4.727799 -4.170587 4.993923 11.020528 4e-06 -1e-06 12.109053 -3.735714 -2.866788 0.0 -0.0 -0.0 1.291986 -1.92855 -1.498088 14.800131 0.567469 3.86561 14.242571 -1.341735 -6.660657 19.631969 0.143927 -0.648242 49.884155 -0.530839 -6.443613 0.35303 -1.511151 -0.031941 20.222795 3.684309 2.316634 18.787279 3e-06 2e-06 10.751631 -0.479869 1.397905 1e-06 1e-06 0.0 3.273807 0.305947 -0.58011 21.486816 11.830376 2.266133 8.162929 1e-06 -2e-06 18.399084 -3.798985 -4.940573 4e-06 -1e-06 -3e-06 0.242567 3.821851 6.185458 -0.005059 -0.165799 2.664877 -2.054866 5.351492 -7.587578 1.633122 -1.940275 -1.867102 -0.0 0.0 2e-06 -2.891163 -7.490663 6.443693 0.004766 -0.01612 4.14064 0.884507 2.818911 -6.17579 -1.408896 0.825978 -1.655259 0.0 0.0 -1e-06 
